<svg t="1638943646231" class="icon" viewBox="0 0 1024 1024" version="1.1" xmlns="http://www.w3.org/2000/svg" p-id="10185" width="20" height="20">
    <path d="M512 74.666667C270.933333 74.666667 74.666667 270.933333 74.666667 512S270.933333 949.333333 512 949.333333 949.333333 753.066667 949.333333 512 753.066667 74.666667 512 74.666667zM288 810.666667a224 224 0 1 1 448 0A371.968 371.968 0 0 1 512 885.333333c-83.2 0-162.133333-27.733333-224-74.666666z m128-384c0-53.333333 42.666667-96 96-96s96 42.666667 96 96-42.666667 96-96 96-96-42.666667-96-96z m377.6 328.533333c-19.2-96-85.333333-174.933333-174.933333-211.2A157.866667 157.866667 0 0 0 669.866667 426.666667c0-87.466667-72.533333-160-160-160S349.866667 339.2 349.866667 426.666667c0 46.933333 19.2 87.466667 51.2 117.333333a288.853333 288.853333 0 0 0-174.933334 211.2C170.666667 689.066667 134.4 605.866667 134.4 512c0-204.8 168.533333-373.333333 373.333333-373.333333S885.333333 307.2 885.333333 512c0 93.866667-34.133333 177.066667-91.733333 243.2z" p-id="10186" fill="#ffffff"></path>
</svg>